# xmcd
# 
# Track frame offsets:
#     150
#     11817
#     32462
#     55412
#     69492
#     84462
#     113570
#     130360
#     149560
#     162875
#     184962
#     200705
#     225942
#     251462
# 
# Disc length: 3627
# 
# Revision: 12
# Processed by: cddbd v1.5.2PL0 Copyright (c) Steve Scherf et al.
# Submitted via: fre:ac v1.0.27
# 
DISCID=bf0e290e
DTITLE=Lyle Lovett - Live In Texas
DYEAR=1995
DGENRE=Jazz-influenced Rock
TTITLE0=Penguins
TTITLE1=I've Been To Memphis
TTITLE2=That's Right (You're Not From Texas)
TTITLE3=Nobody Knows Me
TTITLE4=If I Had A Boat
TTITLE5=North Dakota
TTITLE6=She's No Lady
TTITLE7=Here I Am
TTITLE8=What Do You Do
TTITLE9=Wild Women Don't Get The Blues
TTITLE10=M-O-N-E-Y
TTITLE11=You Can't Resist It
TTITLE12=Church
TTITLE13=Closing Time
EXTD=
EXTT0=
EXTT1=
EXTT2=
EXTT3=
EXTT4=
EXTT5=
EXTT6=
EXTT7=
EXTT8=
EXTT9=
EXTT10=
EXTT11=
EXTT12=
EXTT13=
PLAYORDER=
